<?xml version="1.0" standalone="no"?>
<!DOCTYPE svg PUBLIC "-//W3C//DTD SVG 20010904//EN"
 "http://www.w3.org/TR/2001/REC-SVG-20010904/DTD/svg10.dtd">
<svg version="1.0" xmlns="http://www.w3.org/2000/svg"
 width="780.000000pt" height="780.000000pt" viewBox="0 0 780.000000 780.000000"
 preserveAspectRatio="xMidYMid meet">
<metadata>
Created by potrace 1.14, written by Peter Selinger 2001-2017
</metadata>
<g transform="translate(0.000000,780.000000) scale(0.100000,-0.100000)"
fill="#000000" stroke="none">
<path d="M5418 5612 l-1777 -2 9 -24 c5 -14 29 -54 54 -90 26 -36 46 -70 46
-75 0 -6 6 -11 13 -11 13 -1 64 -77 60 -91 -2 -5 3 -9 11 -9 8 0 20 -13 28
-30 7 -16 19 -30 25 -30 7 0 13 -9 13 -19 0 -11 9 -26 19 -33 11 -8 25 -26 32
-41 7 -15 16 -27 21 -27 4 0 8 -9 8 -20 0 -20 7 -20 1270 -20 866 0 1270 -3
1270 -10 0 -6 -7 -27 -16 -48 -15 -37 -31 -80 -104 -282 -21 -58 -48 -130 -60
-160 -12 -30 -27 -73 -33 -95 -5 -22 -13 -42 -17 -45 -4 -3 -18 -40 -31 -82
-13 -43 -27 -78 -31 -78 -5 0 -8 -11 -8 -25 0 -13 -9 -44 -19 -67 -35 -78 -71
-183 -71 -206 0 -13 -6 -22 -15 -22 -8 0 -15 -9 -15 -20 0 -11 -7 -37 -16 -58
-9 -20 -22 -57 -29 -82 -18 -61 -45 -136 -67 -188 -10 -24 -22 -58 -25 -75 -4
-18 -19 -58 -35 -89 -15 -31 -28 -65 -28 -74 0 -10 -14 -53 -31 -96 -31 -76
-52 -96 -63 -60 -4 9 -20 33 -36 52 -40 47 -43 51 -59 83 -8 15 -18 27 -21 27
-4 0 -13 14 -20 30 -7 17 -15 30 -19 30 -3 0 -17 18 -31 40 -14 22 -28 40 -32
40 -5 0 -8 5 -8 11 0 11 -53 91 -77 117 -7 7 -13 18 -13 23 0 5 -112 9 -275 9
-268 0 -275 0 -275 -20 0 -11 7 -20 15 -20 8 0 15 -6 15 -13 0 -7 8 -22 19
-33 10 -11 24 -31 31 -44 13 -25 22 -37 55 -73 11 -12 31 -42 45 -67 13 -25
32 -54 43 -65 10 -11 27 -37 38 -57 10 -20 25 -41 32 -45 7 -4 23 -25 36 -45
12 -21 26 -38 31 -38 4 0 10 -10 14 -22 3 -13 17 -36 32 -53 14 -16 33 -42 42
-57 9 -16 20 -28 24 -28 4 0 8 -5 8 -12 0 -6 18 -35 40 -64 22 -29 40 -58 40
-64 0 -6 7 -13 15 -16 8 -4 15 -11 15 -18 0 -6 11 -24 25 -40 14 -16 25 -32
25 -36 0 -4 8 -16 18 -28 18 -22 25 -32 73 -105 18 -27 38 -51 46 -54 7 -3 13
-12 13 -19 0 -8 7 -17 15 -20 8 -4 15 -11 15 -18 0 -6 10 -23 23 -38 12 -15
36 -50 52 -79 17 -28 39 -61 50 -73 11 -11 33 -41 50 -66 43 -64 61 -75 71
-42 4 9 12 31 19 47 7 17 21 53 31 80 10 28 24 59 31 71 7 11 10 24 6 27 -3 4
-2 7 3 7 6 0 11 17 12 37 2 21 7 40 12 43 6 3 16 26 24 51 8 24 26 76 41 114
15 39 31 88 35 110 4 22 13 41 19 43 6 2 11 15 11 28 0 13 9 41 20 61 11 21
20 46 20 55 0 10 3 18 8 18 7 0 23 40 46 120 7 25 25 74 40 110 15 36 33 85
40 110 7 25 28 83 46 130 18 47 37 104 43 128 7 23 15 42 19 42 5 0 8 12 8 26
0 14 6 32 14 40 8 7 17 32 21 54 4 22 10 40 14 40 4 0 13 21 21 48 7 26 20 63
29 82 8 19 20 53 27 75 20 68 44 129 60 157 8 15 15 30 14 33 -1 13 12 62 22
79 6 11 14 31 19 45 4 14 22 64 39 111 17 47 35 103 40 125 4 22 13 41 19 43
6 2 11 14 11 27 0 13 4 26 9 29 4 3 14 27 21 53 8 27 16 50 19 53 8 7 30 65
45 120 7 25 25 74 40 110 15 36 29 72 31 80 13 48 79 231 94 259 6 11 11 31
11 45 0 14 5 26 10 26 6 0 10 14 10 30 0 17 4 30 10 30 5 0 14 19 20 43 6 23
14 49 19 58 10 18 3 33 -19 40 -8 2 -815 3 -1792 1z"/>
<path d="M2770 5360 c-151 -210 -165 -230 -246 -345 -27 -39 -80 -115 -119
-168 -221 -307 -271 -377 -285 -397 -8 -12 -59 -83 -113 -158 -108 -150 -111
-154 -209 -292 -37 -52 -74 -104 -82 -115 -8 -11 -27 -38 -43 -61 -43 -63
-130 -184 -213 -297 -41 -56 -88 -123 -105 -147 -16 -25 -34 -49 -38 -55 -4
-5 -37 -50 -73 -100 -35 -49 -70 -97 -77 -105 -6 -9 -25 -35 -42 -60 -25 -37
-151 -215 -209 -295 -82 -112 -329 -459 -356 -499 -19 -28 -43 -60 -52 -70
-10 -11 -18 -23 -18 -28 0 -4 162 -8 360 -8 l359 0 66 98 c36 53 103 151 149
217 45 66 125 183 178 260 116 170 175 257 185 270 5 6 35 51 69 100 33 50 87
128 119 175 57 83 109 158 218 318 155 227 267 390 409 597 228 334 292 426
300 431 3 2 33 -35 65 -83 32 -48 65 -96 74 -105 8 -10 37 -51 64 -90 27 -40
52 -75 55 -78 3 -3 25 -34 50 -70 75 -109 297 -423 319 -451 49 -62 67 -59
-308 -59 l-341 0 0 -260 0 -260 523 0 523 0 20 -27 c11 -16 51 -73 89 -128 64
-94 81 -119 171 -247 20 -28 60 -86 88 -127 127 -186 213 -310 249 -361 21
-30 48 -70 60 -87 l22 -33 359 0 c300 0 357 2 353 14 -3 7 -38 59 -79 115 -40
56 -116 161 -169 234 -52 72 -116 161 -140 197 -25 36 -89 126 -142 200 -53
74 -117 164 -142 200 -26 36 -99 138 -163 227 -183 255 -227 316 -231 328 -2
5 -10 15 -16 20 -7 6 -42 53 -79 105 -37 52 -101 142 -142 200 -130 182 -415
583 -452 635 -19 28 -81 113 -137 190 -82 114 -224 313 -275 385 -6 8 -51 71
-100 140 -49 69 -95 134 -102 144 -7 10 -22 30 -33 43 l-21 25 -144 -202z"/>
</g>
</svg>
